<svg width="85" height="76" viewBox="0 0 85 76" fill="none" xmlns="http://www.w3.org/2000/svg">
<path d="M58.9437 63.0152L48.2782 54.5717C45.9674 52.7941 42.59 53.3274 41.079 55.816L38.3238 60.4377C29.0804 54.305 21.1701 46.3948 15.0375 37.0625L19.6592 34.3073C22.1478 32.7963 22.7699 29.4189 20.9035 27.1081L12.46 16.4426C11.3934 15.0205 9.52698 14.3095 7.83827 14.665C5.97182 15.0205 4.28311 15.9093 3.03881 17.1536C-3.89375 24.0862 2.77217 42.1286 18.0594 57.4158C33.2577 72.703 51.3001 79.3689 58.3215 72.4363C59.477 71.2809 60.2769 69.6811 60.7213 67.9035C61.0768 66.1259 60.4546 64.1706 58.9437 63.0152Z" fill="#459C7C"/>
<path d="M78.7637 0H36.8128C33.5243 0 30.8579 2.66637 30.8579 5.95489V28.0858C30.8579 31.3743 33.5243 34.0407 36.8128 34.0407H39.7458V42.6619C39.7458 45.2394 42.8566 46.5726 44.723 44.7061L55.4774 33.9518H78.7637C82.0522 33.9518 84.7186 31.2854 84.7186 27.9969V5.95489C84.7186 2.66637 82.0522 0 78.7637 0ZM43.8342 21.1532C41.6123 21.1532 39.7458 19.3756 39.7458 17.0648C39.7458 14.8428 41.5234 12.9763 43.8342 12.9763C46.0562 12.9763 47.9227 14.7539 47.9227 17.0648C47.9227 19.2867 46.1451 21.1532 43.8342 21.1532ZM57.7882 21.1532C55.5663 21.1532 53.6998 19.3756 53.6998 17.0648C53.6998 14.8428 55.4774 12.9763 57.7882 12.9763C60.0102 12.9763 61.8767 14.7539 61.8767 17.0648C61.8767 19.2867 60.0102 21.1532 57.7882 21.1532ZM71.6534 21.1532C69.4314 21.1532 67.5649 19.3756 67.5649 17.0648C67.5649 14.8428 69.3425 12.9763 71.6534 12.9763C73.9642 12.9763 75.7418 14.7539 75.7418 17.0648C75.7418 19.2867 73.9642 21.1532 71.6534 21.1532Z" fill="#459C7C"/>
</svg>
