<svg width="419" height="351" viewBox="0 0 419 351" fill="none" xmlns="http://www.w3.org/2000/svg">
<g clip-path="url(#clip0)">
<path d="M419 335.863C419 344.204 325.176 351 209.5 351C93.8244 351 0 344.204 0 335.863C0 327.522 93.8244 320.726 209.5 320.726C325.176 320.726 419 327.522 419 335.863Z" fill="#2F7A5F"/>
<path d="M184.377 240.776C180.797 240.776 177.896 237.872 177.896 234.289C177.896 230.705 180.797 227.801 184.377 227.801C193.142 227.801 199.562 225.453 204.068 220.696C211.907 212.293 210.981 198.824 210.92 198.7V73.9568C210.92 70.3733 213.821 67.4694 217.401 67.4694C220.981 67.4694 223.882 70.3733 223.882 73.9568V198.33C223.944 198.824 225.425 216.618 213.697 229.408C206.661 236.945 196.846 240.776 184.377 240.776Z" fill="#595552"/>
<path d="M211.969 0.0618896C166.415 1.35937 85.9232 19.5859 66.2324 107.135C81.1703 99.5973 97.713 93.2335 115.367 88.0436C126.354 85.6957 141.107 84.769 151.353 92.5539C151.106 42.9406 196.229 10.071 211.969 0.0618896Z" fill="#FE5C14"/>
<path d="M222.771 0.0617849C220.919 0.0617849 219.068 0 217.401 0C215.734 0 213.883 0.0617849 212.031 0.0617849C196.291 10.0092 151.168 42.8787 151.415 92.492C151.539 92.5538 151.662 92.6156 151.786 92.7391C151.786 92.7391 169.131 76.8604 203.266 74.3272C207.957 74.1419 212.586 73.9565 217.339 73.9565C222.092 73.9565 226.722 74.1419 231.413 74.3272C265.548 76.8604 282.893 92.7391 282.893 92.7391C283.016 92.6156 283.14 92.6156 283.263 92.492C283.634 42.9405 238.511 10.0709 222.771 0.0617849Z" fill="#F73706"/>
<path d="M222.771 0.0618896C238.512 10.0093 283.634 42.8788 283.387 92.4921C293.634 84.769 308.386 85.6957 319.374 88.0436C337.027 93.1717 353.57 99.5973 368.508 107.073C348.755 19.5859 268.264 1.35937 222.771 0.0618896Z" fill="#B72200"/>
<path d="M116.91 182.451C116.972 182.018 117.034 181.647 117.034 181.215V172.689C117.034 169.29 114.379 166.572 111.108 166.572H93.3305C90.059 166.572 87.4048 169.29 87.4048 172.689V181.215C87.4048 184.613 90.059 187.332 93.3305 187.332H110.429H111.108H121.601V182.451H116.91Z" fill="#C06C09"/>
<path d="M311.04 182.451C310.979 182.018 310.917 181.647 310.917 181.215V172.689C310.917 169.29 313.571 166.572 316.843 166.572H334.62C337.891 166.572 340.546 169.29 340.546 172.689V181.215C340.546 184.613 337.891 187.332 334.62 187.332H317.583H316.843H306.349V182.451H311.04Z" fill="#C06C09"/>
<path d="M116.91 191.595C116.91 191.595 120.429 179.3 124.749 164.101C129.07 148.902 134.44 126.227 161.353 126.227H266.906C293.819 126.227 299.189 148.902 303.51 164.101L311.287 191.595H116.91Z" fill="#FECD0E"/>
<path d="M78.2693 267.591L81.047 295.332C81.047 300.955 80.2445 305.527 85.7382 305.527H342.336C347.768 305.527 347.027 300.955 347.027 295.332L349.743 267.591H78.2693Z" fill="#F4A600"/>
<path d="M346.224 231.57C346.224 227.06 345.36 224.094 343.817 222.055L343.694 221.931C343.076 221.128 342.397 220.449 341.595 219.954L311.287 191.595H116.848L87.4665 220.943C86.5406 221.684 85.6765 222.487 84.9975 223.414L84.6889 223.723H84.7506C82.7136 226.565 81.726 230.396 81.726 235.771L78.2693 267.652H349.681L346.224 231.57Z" fill="#FECD0E"/>
<path d="M126.848 194.313C126.848 194.313 124.811 244.792 137.156 244.792C149.502 244.792 161.23 244.359 161.23 244.359C161.23 244.359 161.045 206.794 143.946 200.553C126.848 194.313 126.848 194.313 126.848 194.313Z" fill="#F4A600"/>
<path d="M301.041 194.313C301.041 194.313 303.078 244.792 290.732 244.792C278.387 244.792 266.659 244.359 266.659 244.359C266.659 244.359 266.844 206.794 283.942 200.553C301.041 194.313 301.041 194.313 301.041 194.313Z" fill="#F4A600"/>
<path d="M124.256 187.332L128.638 169.105C132.589 152.671 129.811 143.65 152.156 143.65H275.918C298.263 143.65 295.485 152.671 299.436 169.105L303.818 187.332H124.256Z" fill="#262529"/>
<path d="M306.781 189.618H121.416L126.478 168.611C127.095 165.893 127.589 163.421 128.021 161.135C130.243 149.272 131.663 141.426 152.218 141.426H275.979C296.473 141.426 297.954 149.272 300.176 161.197C300.608 163.483 301.04 165.954 301.719 168.673L306.781 189.618ZM127.157 185.046H300.979L297.275 169.6C296.596 166.819 296.102 164.286 295.67 161.938C293.571 150.632 292.707 145.936 275.918 145.936H152.156C135.428 145.936 134.564 150.632 132.403 161.938C131.971 164.286 131.477 166.881 130.798 169.661L127.157 185.046Z" fill="#303030"/>
<path d="M265.856 143.959C273.696 143.959 281.473 144.577 289.066 145.565C286.103 144.33 281.967 143.65 275.98 143.65H152.156C129.811 143.65 132.589 152.671 128.638 169.105L124.256 187.332H150.675C181.908 160.394 222.216 143.959 265.856 143.959Z" fill="#2B2B2B"/>
<path d="M116.416 335.862H96.9725C90.7381 335.862 85.7383 331.29 85.7383 325.668V305.526H127.712V325.668C127.651 331.352 122.589 335.862 116.416 335.862Z" fill="#504E51"/>
<path d="M329.867 335.862H310.423C304.188 335.862 299.188 331.29 299.188 325.668V305.526H341.163V325.668C341.101 331.352 336.101 335.862 329.867 335.862Z" fill="#504E51"/>
<path d="M88.8245 278.465L87.8368 292.861C87.5899 296.197 90.059 298.977 93.3305 298.977H118.392C121.663 298.977 123.453 296.382 121.54 293.602C118.083 288.597 110.614 280.936 94.8119 274.449C91.7873 273.275 89.0714 275.128 88.8245 278.465Z" fill="#C06C09"/>
<path d="M106.664 289.277C106.664 292.86 103.824 295.764 100.367 295.764C96.9107 295.764 94.0713 292.86 94.0713 289.277C94.0713 285.693 96.9107 282.79 100.367 282.79C103.824 282.79 106.664 285.693 106.664 289.277Z" fill="white"/>
<path d="M340.854 277.847L341.842 292.304C342.089 295.703 339.62 298.421 336.348 298.421H311.349C308.077 298.421 306.287 295.764 308.139 293.046C311.596 288.041 319.003 280.38 334.867 273.893C337.891 272.595 340.607 274.449 340.854 277.847Z" fill="#C06C09"/>
<path d="M322.645 288.782C322.645 292.366 325.484 295.27 328.941 295.27C332.46 295.27 335.237 292.366 335.237 288.782C335.237 285.199 332.398 282.295 328.941 282.295C325.423 282.295 322.645 285.199 322.645 288.782Z" fill="white"/>
<path d="M281.72 298.359H146.168C142.095 298.359 136.539 295.764 133.823 292.551L122.342 279.206C119.564 275.993 120.675 273.398 124.749 273.398H303.263C307.337 273.398 308.386 275.993 305.67 279.206L294.189 292.551C291.349 295.764 285.856 298.359 281.72 298.359Z" fill="#C06C09"/>
<path d="M100.799 223.353C100.799 223.353 142.156 225.762 145.736 238.984C149.317 252.206 134.934 254.616 134.934 254.616C134.934 254.616 91.9108 266.787 88.0837 238.984C85.6147 220.943 100.799 223.353 100.799 223.353Z" fill="#C06C09"/>
<path d="M327.768 223.353C327.768 223.353 286.411 225.762 282.831 238.984C279.251 252.206 293.633 254.616 293.633 254.616C293.633 254.616 336.657 266.787 340.484 238.984C342.953 220.943 327.768 223.353 327.768 223.353Z" fill="#C06C09"/>
<path d="M289.066 252.638C239.499 259.682 189.13 259.682 139.564 252.638C140.181 248.19 140.86 243.679 141.477 239.169C189.809 246.027 238.82 246.027 287.152 239.169C287.769 243.679 288.387 248.128 289.066 252.638Z" fill="#C06C09"/>
<path d="M115.182 252.082C101.664 252.082 94.5033 247.572 93.2071 238.304C92.8984 236.08 92.8984 234.103 93.2071 232.62C93.2071 232.62 94.565 228.604 97.4045 228.604C100.244 228.542 98.3921 228.48 99.0711 228.48H99.5032L99.8735 228.542L100.244 228.604C113.453 229.345 134.194 232.991 139.564 238.737C139.564 238.737 144.687 245.101 134.07 249.611L133.268 249.796C133.329 249.734 124.626 252.082 115.182 252.082Z" fill="white"/>
<path d="M312.768 252.082C326.287 252.082 333.447 247.572 334.743 238.304C335.052 236.08 335.052 234.103 334.743 232.62C334.743 232.62 333.385 228.604 330.546 228.604C327.706 228.542 329.558 228.48 328.879 228.48H328.509L328.138 228.542L327.768 228.604C314.559 229.345 293.818 232.991 288.448 238.737C288.448 238.737 283.325 245.101 293.942 249.611L294.744 249.796C294.621 249.734 303.324 252.082 312.768 252.082Z" fill="white"/>
<path opacity="0.5" d="M231.475 153.165C231.475 155.636 229.438 157.675 226.969 157.675H202.155C199.686 157.675 197.649 155.636 197.649 153.165C197.649 150.632 199.686 148.655 202.155 148.655H226.969C229.438 148.655 231.475 150.694 231.475 153.165Z" fill="black"/>
<path opacity="0.5" d="M217.339 143.65H211.105V148.654H217.339V143.65Z" fill="black"/>
<path d="M257.523 294.652H170.427C160.304 294.652 161.291 289.895 161.291 284.087C161.291 278.218 168.267 273.522 176.847 273.522H251.104C259.684 273.522 266.659 278.279 266.659 284.087C266.659 289.895 267.646 294.652 257.523 294.652Z" fill="white"/>
</g>
<defs>
<clipPath id="clip0">
<rect width="419" height="351" fill="white"/>
</clipPath>
</defs>
</svg>
