<svg width="421" height="334" viewBox="0 0 421 334" fill="none" xmlns="http://www.w3.org/2000/svg">
<g clip-path="url(#clip0)">
<path d="M310.561 286.222H342.898C348.626 286.222 353.246 281.609 353.246 275.888V192.23C353.246 186.509 348.626 181.895 342.898 181.895H310.561C304.832 181.895 300.213 186.509 300.213 192.23V275.888C300.213 281.609 304.832 286.222 310.561 286.222Z" fill="#4D4D4D"/>
<path d="M33.1381 286.222H65.4753C71.2036 286.222 75.8232 281.609 75.8232 275.888V192.23C75.8232 186.509 71.2036 181.895 65.4753 181.895H33.1381C27.4098 181.895 22.7902 186.509 22.7902 192.23V275.888C22.7902 281.609 27.4714 286.222 33.1381 286.222Z" fill="#4D4D4D"/>
<path d="M310.561 286.222H342.898C348.626 286.222 353.246 281.609 353.246 275.888V192.23C353.246 186.509 348.626 181.895 342.898 181.895H310.561C304.832 181.895 300.213 186.509 300.213 192.23V275.888C300.213 281.609 304.832 286.222 310.561 286.222Z" fill="#4D4D4D"/>
<path d="M33.1381 286.222H65.4753C71.2036 286.222 75.8232 281.609 75.8232 275.888V192.23C75.8232 186.509 71.2036 181.895 65.4753 181.895H33.1381C27.4098 181.895 22.7902 186.509 22.7902 192.23V275.888C22.7902 281.609 27.4714 286.222 33.1381 286.222Z" fill="#4D4D4D"/>
<path fill-rule="evenodd" clip-rule="evenodd" d="M5.29724 80.7058H27.5329C30.4895 80.7058 32.8917 83.1048 32.8917 86.0574V97.1299C33.754 97.499 34.6163 97.9911 35.5403 98.5447C35.8482 97.3759 36.1562 96.0842 36.341 94.4848L39.2975 78.2452C39.3591 77.8761 39.4207 77.5686 39.4823 77.1995L39.7287 76.2768C43.7323 55.5467 53.0332 30.9413 60.7941 17.2238L61.1637 16.6087C63.5659 12.3642 68.0007 4.49049 78.287 3.99838C115.059 1.3533 151.646 0 188.049 0C224.451 0 261.039 1.3533 297.811 3.99838C308.159 4.49049 312.593 12.3642 314.934 16.6087L315.242 17.2238C323.003 30.9413 332.304 55.6082 336.307 76.2768L336.492 77.261C336.554 77.6301 336.615 77.9377 336.677 78.3067L339.633 94.5463C339.88 96.1457 340.126 97.4375 340.434 98.6062C341.297 98.0526 342.22 97.5605 343.083 97.1914V86.119C343.083 83.1663 345.485 80.7673 348.442 80.7673H370.739C374.065 80.7673 376.529 83.7199 375.974 86.9801L373.819 99.2829C373.264 102.42 370.554 104.696 367.351 104.696H348.134C347.887 104.696 347.641 104.573 347.394 104.512C346.84 105.004 346.286 105.496 345.608 105.988C350.597 108.079 364.518 115.584 364.518 139.574L360.268 223.848C360.268 233.136 349.92 245.624 342.405 245.624C291.651 251.652 240.158 254.42 188.11 254.235C136.063 254.42 84.6313 251.652 33.8156 245.624C26.301 245.624 15.9531 233.136 15.9531 223.848L11.7031 139.574C11.7031 115.522 25.5619 108.079 30.6127 105.988C29.9967 105.496 29.3808 105.004 28.8264 104.512C28.58 104.573 28.3336 104.696 28.0873 104.696H8.86972C5.66678 104.696 2.95663 102.42 2.40228 99.2829L0.24649 86.9801C-0.492645 83.6584 2.03271 80.7058 5.29724 80.7058ZM57.16 92.6394C98.7981 90.671 140.498 89.6867 182.197 89.6867C183.552 89.6867 184.907 89.6867 186.263 89.6867C186.879 89.6867 187.494 89.6867 188.11 89.6867C188.726 89.6867 189.342 89.6867 189.958 89.6867C191.313 89.6867 192.668 89.6867 194.024 89.6867C235.723 89.6867 277.423 90.671 319.061 92.6394C324.42 92.8855 329.224 89.5637 328.731 85.2578C326.637 65.5119 316.351 36.539 307.481 21.0376C305.264 17.1623 303.169 12.9794 297.811 12.7333C256.173 10.7649 235.785 9.78065 194.085 9.78065C192.73 9.78065 191.375 9.78065 190.02 9.78065C189.404 9.78065 188.788 9.78065 188.172 9.78065C187.556 9.78065 186.94 9.78065 186.324 9.78065C184.969 9.78065 183.614 9.78065 182.259 9.78065C140.559 9.78065 120.171 10.7649 78.5334 12.7333C73.1747 12.9794 71.0188 17.2238 68.863 21.0376C59.9934 36.4775 49.7071 65.4504 47.6128 85.2578C46.9969 89.5637 51.8013 92.8855 57.16 92.6394Z" fill="#459C7C"/>
<path fill-rule="evenodd" clip-rule="evenodd" d="M78.4102 12.7332C120.048 10.7647 140.436 9.78052 182.136 9.78052C183.491 9.78052 184.846 9.78052 186.201 9.78052C186.817 9.78052 187.433 9.78052 188.049 9.78052C188.665 9.78052 189.281 9.78052 189.897 9.78052C191.252 9.78052 192.607 9.78052 193.962 9.78052C235.662 9.78052 256.049 10.7647 297.687 12.7332C303.046 12.9792 305.202 17.2237 307.358 21.0375C316.227 36.4774 326.514 65.4503 328.608 85.2576C329.039 89.5636 324.296 92.8853 318.938 92.6393C277.3 90.6708 235.6 89.6866 193.9 89.6866C192.545 89.6866 191.19 89.6866 189.835 89.6866C189.219 89.6866 188.603 89.6866 187.987 89.6866C187.371 89.6866 186.755 89.6866 186.139 89.6866C184.784 89.6866 183.429 89.6866 182.074 89.6866C140.374 89.6866 98.6748 90.6708 57.0368 92.6393C51.678 92.8853 46.8737 89.5636 47.3664 85.2576C49.4606 65.5118 59.747 36.5389 68.6166 21.0375C70.8956 17.2237 73.0514 12.9792 78.4102 12.7332Z" fill="#C4E9FF"/>
<path d="M185.154 102.851C115.921 102.851 62.7034 104.081 52.6019 105.865C52.6019 105.865 52.6019 105.865 52.5403 105.865L87.7725 148.432C92.0225 153.599 99.7219 156.798 107.852 156.798H268.183C276.314 156.798 283.952 153.599 288.263 148.432L323.496 105.865C312.593 104.081 255.741 102.851 185.154 102.851ZM185.215 98.5448C248.165 98.5448 311.916 99.5905 324.235 101.62C327.807 102.174 329.84 104.942 327.93 107.341L291.651 151.2C286.539 157.413 277.731 161.166 268.245 161.166H107.914C98.49 161.166 89.6203 157.413 84.508 151.2L48.2287 107.341C46.2576 105.004 48.3519 102.297 51.9244 101.62C63.5042 99.529 123.99 98.5448 185.215 98.5448Z" fill="#2F7A5F"/>
<path d="M72.3123 170.577L29.9351 168.793C26.6706 168.67 24.8843 166.209 23.5292 162.826C21.8662 153.599 21.3734 143.142 21.5582 132.008C21.4966 128.071 24.5148 124.749 28.4568 124.503L39.5439 123.765C45.457 123.396 51.1853 126.164 54.5114 131.085L76.3776 163.318C78.5334 166.455 76.1312 170.7 72.3123 170.577Z" fill="white"/>
<path fill-rule="evenodd" clip-rule="evenodd" d="M69.3556 206.378C71.5731 206.501 73.4209 204.225 73.4209 201.334V189.338C73.4209 186.878 71.3883 184.848 68.8013 184.786L32.9532 183.31C30.4894 183.187 28.5183 185.156 28.7031 187.432L29.5038 198.381C29.7502 201.395 31.5981 203.733 33.9387 203.917L69.3556 206.378Z" fill="#F1C40F"/>
<path d="M72.1892 61.9445L164.704 74.5547V74.4932C164.951 72.8939 163.781 71.4175 162.179 71.1715L75.5153 59.3609C74.7146 59.2379 73.9755 59.4839 73.2979 59.9145C72.7436 60.4066 72.3124 61.1448 72.1892 61.9445Z" fill="#3C3C3B"/>
<path d="M114.998 67.2957L153.433 90.3018L155.096 87.8412L115.86 65.9424L114.998 67.2957Z" fill="#4D4D4D"/>
<path d="M157.991 88.8259C157.991 90.1177 156.697 91.1634 155.096 91.1634C153.494 91.1634 152.201 90.1177 152.201 88.8259C152.201 87.5341 153.494 86.4884 155.096 86.4884C156.697 86.4884 157.991 87.5341 157.991 88.8259Z" fill="#4D4D4D"/>
<path d="M172.219 66.127L264.673 78.7372V78.6757C264.919 77.0764 263.749 75.6 262.147 75.354L175.484 63.5434C174.683 63.4204 173.944 63.6664 173.266 64.097C172.712 64.5891 172.281 65.3273 172.219 66.127Z" fill="#3C3C3B"/>
<path d="M257.712 90.4867C257.651 91.7785 256.296 92.7627 254.694 92.6396C253.093 92.5781 251.861 91.4094 251.984 90.1791C252.046 88.8873 253.401 87.9031 255.002 88.0261C256.542 88.0877 257.774 89.1949 257.712 90.4867Z" fill="#4D4D4D"/>
<path d="M213.426 70.8023L253.401 91.1632L254.879 88.5182L214.227 69.3875L213.426 70.8023Z" fill="#4D4D4D"/>
<path fill-rule="evenodd" clip-rule="evenodd" d="M306.742 206.378C304.525 206.501 302.677 204.225 302.677 201.334V189.338C302.677 186.878 304.709 184.848 307.296 184.786L343.144 183.31C345.608 183.187 347.579 185.156 347.394 187.432L346.594 198.381C346.347 201.395 344.5 203.733 342.159 203.917L306.742 206.378Z" fill="#F1C40F"/>
<path d="M302.43 170.577L344.807 168.793C348.072 168.67 349.858 166.209 351.213 162.826C352.876 153.599 353.369 143.142 353.184 132.008C353.246 128.071 350.228 124.749 346.286 124.503L335.199 123.765C329.286 123.396 323.557 126.164 320.231 131.085L298.365 163.318C296.209 166.455 298.611 170.7 302.43 170.577Z" fill="white"/>
<path fill-rule="evenodd" clip-rule="evenodd" d="M117.276 225.14C164.766 228.092 211.332 228.092 258.821 225.14C263.995 224.771 268.799 220.526 269.292 215.667C270.462 203.61 270.462 191.43 269.292 179.374C268.799 174.514 263.995 170.27 258.821 169.901C211.332 166.948 164.766 166.948 117.276 169.901C112.102 170.27 107.298 174.514 106.805 179.374C105.635 191.43 105.635 203.61 106.805 215.667C107.298 220.526 112.102 224.771 117.276 225.14Z" fill="#ECF0F1"/>
<path d="M250.444 218.066C250.444 219.849 252.908 221.326 255.865 221.326H256.419C259.437 221.326 261.839 219.849 261.839 218.066V177.036C261.839 175.252 259.376 173.776 256.419 173.776H255.865C252.847 173.776 250.444 175.252 250.444 177.036V218.066Z" fill="#4D4D4D"/>
<path d="M230.98 218.066C230.98 219.849 233.444 221.326 236.401 221.326H236.955C239.973 221.326 242.375 219.849 242.375 218.066V177.036C242.375 175.252 239.912 173.776 236.955 173.776H236.401C233.383 173.776 230.98 175.252 230.98 177.036V218.066Z" fill="#4D4D4D"/>
<path d="M211.516 218.066C211.516 219.849 213.98 221.326 216.937 221.326H217.491C220.509 221.326 222.911 219.849 222.911 218.066V177.036C222.911 175.252 220.448 173.776 217.491 173.776H216.937C213.919 173.776 211.516 175.252 211.516 177.036V218.066Z" fill="#4D4D4D"/>
<path d="M192.053 218.066C192.053 219.849 194.516 221.326 197.473 221.326H198.027C201.045 221.326 203.448 219.849 203.448 218.066V177.036C203.448 175.252 200.984 173.776 198.027 173.776H197.473C194.455 173.776 192.053 175.252 192.053 177.036V218.066Z" fill="#4D4D4D"/>
<path d="M172.527 218.066C172.527 219.849 174.991 221.326 177.947 221.326H178.502C181.52 221.326 183.922 219.849 183.922 218.066V177.036C183.922 175.252 181.458 173.776 178.502 173.776H177.947C174.929 173.776 172.527 175.252 172.527 177.036V218.066Z" fill="#4D4D4D"/>
<path d="M153.063 218.066C153.063 219.849 155.527 221.326 158.483 221.326H159.038C162.056 221.326 164.458 219.849 164.458 218.066V177.036C164.458 175.252 161.994 173.776 159.038 173.776H158.483C155.465 173.776 153.063 175.252 153.063 177.036V218.066Z" fill="#4D4D4D"/>
<path d="M133.599 218.066C133.599 219.849 136.063 221.326 139.019 221.326H139.574C142.592 221.326 144.994 219.849 144.994 218.066V177.036C144.994 175.252 142.53 173.776 139.574 173.776H139.019C136.001 173.776 133.599 175.252 133.599 177.036V218.066Z" fill="#4D4D4D"/>
<path d="M114.135 218.066C114.135 219.849 116.599 221.326 119.556 221.326H120.11C123.128 221.326 125.53 219.849 125.53 218.066V177.036C125.53 175.252 123.067 173.776 120.11 173.776H119.556C116.537 173.776 114.135 175.252 114.135 177.036V218.066Z" fill="#4D4D4D"/>
<path fill-rule="evenodd" clip-rule="evenodd" d="M188.049 232.46C246.687 232.337 301.753 228.031 359.036 222.987C365.319 222.987 365.319 232.644 365.319 232.644C365.319 240.887 365.319 252.575 348.565 253.743C295.717 258.787 242.191 261.31 188.049 261.433C133.907 261.31 80.3813 258.849 27.5331 253.743C10.7793 252.513 10.7793 240.825 10.7793 232.644C10.7793 232.644 10.7793 222.987 17.062 222.987C74.2835 228.092 129.411 232.398 188.049 232.46Z" fill="#ECF0F1"/>
<g opacity="0.1">
<path opacity="0.1" d="M188.049 0C224.451 0 261.039 1.3533 297.811 3.99838C308.159 4.49049 312.593 12.3642 314.934 16.6087L315.242 17.2238C323.003 30.9413 332.304 55.6082 336.307 76.2768L336.492 77.261C336.554 77.6301 336.615 77.9377 336.677 78.3067L339.633 94.5463C339.88 96.1457 340.126 97.4375 340.434 98.6062C341.297 98.0526 342.22 97.5605 343.083 97.1914V86.119C343.083 83.1663 345.485 80.7673 348.442 80.7673H370.739C374.065 80.7673 376.529 83.7199 375.974 86.9801L373.819 99.2829C373.264 102.42 370.554 104.696 367.351 104.696H348.134C347.887 104.696 347.641 104.573 347.394 104.512C346.84 105.004 346.286 105.496 345.608 105.988C350.597 108.079 364.518 115.584 364.518 139.574L360.268 223.233C365.257 224.463 365.318 232.644 365.318 232.644C365.318 240.026 365.257 250.114 353.308 253.005V275.827C353.308 281.547 348.688 286.161 342.96 286.161H310.622C304.894 286.161 300.274 281.547 300.274 275.827V257.557C263.194 260.018 225.806 261.31 188.11 261.371V0H188.049Z" fill="black"/>
</g>
<path fill-rule="evenodd" clip-rule="evenodd" d="M194.886 98.3605C197.103 118.721 199.998 139.39 204.31 159.566C205.973 167.256 207.821 174.883 209.915 182.388C211.455 188.047 213.179 193.645 215.027 199.181C217.676 207.178 220.632 214.99 223.959 222.556C239.357 257.988 262.455 288.991 297.503 310.828C370.554 265.37 391.435 179.804 400.058 98.3605C365.257 86.4884 340.619 82.49 297.503 81.1367C254.386 82.49 229.687 86.4884 194.886 98.3605Z" fill="#FFC229"/>
<path fill-rule="evenodd" clip-rule="evenodd" d="M297.503 81.1367C340.619 82.5515 365.257 86.4884 400.058 98.3605L392.851 103.036C392.851 103.036 392.851 103.036 392.851 102.974C361.746 92.7628 338.525 89.1335 297.503 87.7802C256.481 89.1335 233.259 92.7628 202.154 102.974C202.154 102.974 202.154 102.974 202.154 103.036L194.947 98.3605C229.687 86.4884 254.386 82.5515 297.503 81.1367Z" fill="#E89511"/>
<path fill-rule="evenodd" clip-rule="evenodd" d="M297.503 333.403C387.492 284.5 411.946 184.848 421 85.1348C375.297 68.157 347.394 63.1744 297.503 61.5751C247.611 63.1129 219.647 68.157 174.005 85.1348C182.998 184.848 207.451 284.5 297.503 333.403ZM297.503 81.1364C340.619 82.5512 365.318 86.4881 400.058 98.3602C391.435 179.866 370.554 265.369 297.503 310.828C224.39 265.369 203.571 179.804 194.947 98.3602C229.687 86.4881 254.386 82.5512 297.503 81.1364Z" fill="#F39C12"/>
<path fill-rule="evenodd" clip-rule="evenodd" d="M201.476 143.142L297.503 156.737V134.653L201.476 121.059V143.142Z" fill="#F39C12"/>
<path fill-rule="evenodd" clip-rule="evenodd" d="M204.31 159.566C205.973 167.256 207.821 174.883 209.915 182.388L297.503 194.814V172.792L204.31 159.566Z" fill="#F39C12"/>
<path fill-rule="evenodd" clip-rule="evenodd" d="M215.027 199.181C217.676 207.178 220.632 214.99 223.959 222.556L297.503 232.952V210.93L215.027 199.181Z" fill="#F39C12"/>
<path fill-rule="evenodd" clip-rule="evenodd" d="M393.529 143.142L297.564 156.737V134.653L393.529 121.059V143.142Z" fill="#F39C12"/>
<path fill-rule="evenodd" clip-rule="evenodd" d="M390.757 159.566C389.094 167.256 387.246 174.883 385.152 182.388L297.564 194.814V172.792L390.757 159.566Z" fill="#F39C12"/>
<path fill-rule="evenodd" clip-rule="evenodd" d="M380.04 199.181C377.391 207.178 374.434 214.99 371.108 222.556L297.564 232.952V210.93L380.04 199.181Z" fill="#F39C12"/>
<path fill-rule="evenodd" clip-rule="evenodd" d="M194.947 98.3601L202.154 103.035C210.1 173.407 228.701 257.742 297.503 302.893V310.828C224.39 265.369 203.571 179.866 194.947 98.3601Z" fill="#E09011"/>
<path fill-rule="evenodd" clip-rule="evenodd" d="M392.79 103.035L399.996 98.3601C399.996 98.3601 399.996 98.3601 400.058 98.3601C391.435 179.866 370.554 265.369 297.503 310.828V302.893C366.242 257.742 384.906 173.407 392.79 103.035Z" fill="#FFCF82"/>
<g opacity="0.1">
<path opacity="0.1" d="M421 85.1337C411.946 184.847 387.492 284.499 297.503 333.402V61.6355C347.394 63.1733 375.297 68.2174 421 85.1337Z" fill="black"/>
</g>
</g>
<defs>
<clipPath id="clip0">
<rect width="421" height="333.403" transform="matrix(-1 0 0 1 421 0)" fill="white"/>
</clipPath>
</defs>
</svg>
